<?xml version="1.0" encoding="UTF-8"?>
<svg xmlns="http://www.w3.org/2000/svg" viewBox="0 0 374.81 179.19">
  <defs>
    <style>
      .cls-1 {
        font-family: BebasNeuePro-Book, 'Bebas Neue Pro';
        font-size: 63px;
      }

      .cls-2 {
        fill: none;
        stroke: #000;
        stroke-linejoin: round;
        stroke-width: 1.5px;
      }
    </style>
  </defs>
  <g id="BACKGROUND">
    <text class="cls-1" transform="translate(55.79 169.63) rotate(-90)"><tspan x="0" y="0">sneaker</tspan></text>
    <path d="M109.57,19.59v49.96h-28.51V18.61c-.19.08-.4.15-.67.17-1.79.19-3.35.58-3.87,2.31-.52,1.73-.73,5.77-.52,7.18s1.96,7.66,1.87,8.64c-.09.98,1.26,4.21.64,4.85-.62.64-1.62,4.68-1.91,5.96-.3,1.28.15,3.53.24,5.3s1.35,3.81,1.55,4.41c.2.6-1.32,4.93-1.32,4.93l-1.19,5.71-.3,4.09.3,3.23-.96,7.16-3.39,17.39s-3.13,19.91-2.71,22.51c.42,2.6.24,10.06.67,11.15.1.25.04.52-.1.79,2.33.39,5.5,1.02,5.5,1.02l5.09.65s.47-.04,1.08-.06v-54.24h28.51v56.67h13.4V20.09l-13.4-.5Z"/>
    <path d="M176.51,31.66l-6.59-11.65-.8-.18v91.2c0,11.29-4.93,16.41-13.77,16.41s-13.77-5.13-13.77-16.41V18.59l-13.26,1.32v90.1c0,18.98,9.18,29.58,26.85,29.58s26.85-10.6,26.85-29.58V40.44l-5.52-8.78Z"/>
    <g>
      <path d="M198.36,48.37v-26.76h-12.62v19.39c2.48-.24,7.42.05,11.01,5.21.53.77.96,1.39,1.32,1.89.07,0,.12,0,.12,0,0,0,.07.11.18.27Z"/>
      <path d="M198.06,48.1c-1.01-.05-8.7-.35-12.33.65v8.59c1.72-3.49,12.44-3.3,12.44-3.3,0,0,.07.11.18.3v-5.82c-.09-.13-.19-.27-.3-.42Z"/>
    </g>
    <path d="M229.94,97.42c-2.62.57-2.69-1.33-2.81-2.6-.12-1.26,2.19-4.19,2.19-4.19,0,0,3.06-3.37,4.46-4.89.4-.43,1.05-.68,1.77-.82v-4.52c-2.13.3-4.93,1.08-5.94,1.22-1.4.19-4.58,2.82-6.69,4.27v29.63c0,8.75-3.2,14.31-10.94,14.31s-13.63-6.4-13.63-18.85v-27.77c0-1.22.07-2.36.18-3.47-.7.15-1.26-.31-2.37-1.05-1.07-.72-3.76-1.58-.93-4.67,2.83-3.09,6.52-4.68,7.47-4.5,0,0,.48-.19.48-.19,2.44-3.18,4.91-4.97,8.8-4.97,7.2,0,10.47,4.81,10.89,12.4,2.85-.75,6.43-1.61,7.65-2.04,2.04-.73,3.23.79,3.23.79l1.76,1.05c-.28-16.16-7.62-23.47-19.83-23.47-5.94,0-11.12,2.39-14.85,6.63.06.43-.02.71-.32.72-.08,0-.2.03-.33.05-.67.84-1.29,1.73-1.84,2.69v-2.11c-3.62,1.3-10.38,4.2-12.29,4.94-.12.05-.23.06-.33.08v73.33h9.26l1.68-11.95c2.22,5.65,5.97,9.76,10.77,11.91,2.93.36,7.94.57,16.41.31,7.45-2.91,11.69-10.44,11.69-23.16v-21.47c-1.82,1.04-4.08,2.03-5.62,2.36Z"/>
  </g>
  <g id="OBJECTS">
    <g>
      <path class="cls-2" d="M271.86,101.5c.75.23,1.48.46,2.18.69"/>
      <path class="cls-2" d="M258.77,97.58c1.57.48,3.1.94,4.58,1.38"/>
      <path class="cls-2" d="M239.65,90.91c3.09,1.25,6.14,2.38,9.13,3.42"/>
      <path class="cls-2" d="M225.66,84.35c2.12,1.15,4.27,2.23,6.42,3.25"/>
      <path class="cls-2" d="M209.79,73.77c2.46,2.03,5.01,3.9,7.62,5.64"/>
      <path class="cls-2" d="M197.41,61.58c2.15,2.46,4.41,4.87,6.79,7.17"/>
      <path class="cls-2" d="M187.5,48.87c1.44,2.04,2.96,4.12,4.56,6.19"/>
      <path class="cls-2" d="M274.04,102.19c26.01,10.51,81.59,16.48,80.33,20.05-2.94,12.1-70.65,17.11-105.56,17.32-34.91.21-68.27-.55-106.98-.04-38.71.52-71.9-4.84-71.9-4.84,0,0-2.25-9.76-.35-21.17,1.9-11.41,6.56-37.94,6.56-37.94-2.08-5.36,2.25-17.63,2.25-17.63-3.8-7.09-.17-16.5-.17-16.5-4.06-21.69-1.3-22.57.86-22.47,28,1.3,37.85,2.49,59.11,0,21.26-2.5,29.55-.94,33.01,3.72,1.62,2.19,5.43,9.54,11.19,18.57"/>
      <path class="cls-2" d="M69.78,133.9c-3.3,1.87-1.95,7.4-.95,8.78,16,4.72,54.51,4.09,82.34,3.57,27.82-.52,69.65,1.9,122.36,0,52.71-1.9,85.45-14.11,86.61-17.57,1.15-3.46-2.88-8.53-6.36-7.34"/>
      <path class="cls-2" d="M69.82,142.68c-3.61.86,5.26,22.52,5.26,22.52,0,0,21.81,4.38,73.66,4.38s77.43,1.04,105.6,1.21c28.17.17,95.36-7.78,107.29-18.15v-7.78s3.63-8.01-1.3-18.03"/>
      <path class="cls-2" d="M279.84,145.97c-23.84,2.99-33.06,24.76-33.06,24.76"/>
      <path class="cls-2" d="M171.61,49.42c.81,1.73,4.44,2.59,10.77.58s14.81-3.11,16.82-.23c0,0-2.71-5.18-7.2-7.55-4.49-2.36-21.72-.52-20.39,7.2Z"/>
      <path class="cls-2" d="M182.67,63.82c-1.33-1.67-.23-4.09,3-6.34,3.23-2.25,11.87-3.69,14.81-3.57,2.94.12,7.55,1.32,8.87,4.38,1.32,3.05,4.38,2.82,4.9,6.62,0,0-3.98-4.78-9.16-4.9s-15.78,4.9-19.01,5.99c-3.23,1.09-3.4-2.19-3.4-2.19Z"/>
      <line class="cls-2" x1="198.18" y1="48.87" x2="195.52" y2="54.37"/>
      <path class="cls-2" d="M199.2,49.76c2.02.06,2.65,4.27,2.65,4.27"/>
      <path class="cls-2" d="M149.55,17.78s7.6-9.03,10.48-11.8c2.88-2.77,7.14-1.61,9.22,1.96s13.24,22.47,16.12,24.66c2.89,2.19,4.93,9.04,4.93,9.04"/>
      <path class="cls-2" d="M194.45,77.3c-1.55-2.59,3.89-6.05,5.44-6.65,1.56-.6,12.88-5.27,15.04-5.27s7.17,1.21,8.64,2.33c1.47,1.12,3.63,5.36,3.63,5.36,0,0-4.58-2.68-6.39-2.77s-8.21,1.9-8.21,1.9c0,0-12.76,8.29-14.42,7.78-1.84-.57-3.73-2.68-3.73-2.68Z"/>
      <path class="cls-2" d="M211.99,90.61c-1.3-1.12-.97-3.28-1.18-3.8-.21-.52,7.23-8.55,8.95-9.25,1.73-.69,12.01-2.85,12.36-2.85s7.26,3.8,8.12,4.84c.86,1.04,2.85,4.49,2.85,4.49,0,0-4.49-3.46-4.75-3.46s-8.47.95-8.73,1.04c-.26.09-8.21,5.27-8.21,5.27,0,0-5.44,6.57-9.42,3.72Z"/>
      <line class="cls-2" x1="222.48" y1="70.73" x2="222.48" y2="76.8"/>
      <line class="cls-2" x1="214.24" y1="71.71" x2="213.05" y2="76.32"/>
      <line class="cls-2" x1="227.2" y1="73.07" x2="229.55" y2="75.21"/>
      <line class="cls-2" x1="204.67" y1="68.75" x2="207.61" y2="60.44"/>
      <path class="cls-2" d="M254.6,91.32l-3.28-2.01s-9.25.26-9.85.43c-.6.17-4.32,4.06-5.18,4.84-.86.78-4.98,3.28-6.73,3.2-3.64-.17-2.26-4.75-1.66-5.53.6-.78,6.7-7.39,6.7-7.39l8.51-.82s5.79,1.73,6.52,1.9c.73.17,7.82,5.38,7.82,5.38"/>
      <line class="cls-2" x1="229.94" y1="86.57" x2="231.13" y2="81.41"/>
      <line class="cls-2" x1="238.35" y1="80.58" x2="238.71" y2="84.46"/>
      <path class="cls-2" d="M265.22,94.06l-6.31-2.74h-6.48s-6.65,5.42-7.69,6.46c-1.04,1.03-3.28,4.15,1.12,5.44,1.81,1.21,7.35-1.73,7.35-1.73l6.74-4.75h4.58"/>
      <path class="cls-2" d="M263.93,109.1c-2.07-.78-2.68-4.49-2.68-4.75s4.93-12.36,4.93-12.36c0,0,6.83,1.47,7.6,2.33s1.12,1.3,1.12,1.3l-1.04,1.8s-4.49,9.43-5.79,10.73-4.15.95-4.15.95Z"/>
      <path class="cls-2" d="M289.87,107.46c-7.19-7.96-15.4-11.1-15.4-11.1"/>
    </g>
  </g>
</svg>